Coordinates
version=1
nRows=22
nColumns=24
inDegrees=yes

Units are S.I. units (second, meters, Newtons, ...)
Angles are in degrees.

endheader
time	pelvis_tilt	pelvis_list	pelvis_rotation	pelvis_tx	pelvis_ty	pelvis_tz	hip_flexion_r	hip_adduction_r	hip_rotation_r	knee_angle_r	ankle_angle_r	subtalar_angle_r	mtp_angle_r	hip_flexion_l	hip_adduction_l	hip_rotation_l	knee_angle_l	ankle_angle_l	subtalar_angle_l	mtp_angle_l	lumbar_extension	lumbar_bending	lumbar_rotation
      3.80500000	     -0.82264033	     -5.49324859	     -5.10515537	     -1.14327439	      0.94071843	      0.23661900	     11.61070881	     12.57312466	      8.66643498	    -21.94113158	     13.79509695	    -15.03843482	      0.00000000	     27.22965621	     -5.77752652	     -3.52724636	    -69.84647471	     10.31424658	    -14.94884266	      0.00000000	    -11.30716604	      5.33805980	     -3.81592084
      3.81000000	     -0.81239833	     -5.23458421	     -5.28000148	     -1.13678683	      0.94164617	      0.23716645	     10.94385820	     12.32346027	      9.04420588	    -21.55880991	     13.94490838	    -15.18943026	      0.00000000	     27.73567665	     -5.52690839	     -3.63727887	    -68.77246865	     10.80452643	    -14.34608081	      0.00000000	    -11.32949477	      4.94797406	     -3.65541624
      3.81500000	     -0.78953510	     -4.98228688	     -5.46418201	     -1.13030381	      0.94251331	      0.23771848	     10.26289744	     12.07965432	      9.46088494	    -21.17178325	     14.07413993	    -15.38936421	      0.00000000	     28.19119724	     -5.28751153	     -3.76505680	    -67.60930826	     11.20348264	    -13.84978881	      0.00000000	    -11.37126044	      4.56631358	     -3.46745381
      3.82000000	     -0.77824787	     -4.74091180	     -5.65158877	     -1.12380776	      0.94326739	      0.23826274	      9.60990568	     11.84258308	      9.85922521	    -20.80930272	     14.20453119	    -15.58030607	      0.00000000	     28.61918352	     -5.05925708	     -3.89666090	    -66.35784566	     11.56488572	    -13.45161004	      0.00000000	    -11.39910773	      4.19906471	     -3.29629584
      3.82500000	     -0.77085787	     -4.51628619	     -5.83886956	     -1.11730463	      0.94390961	      0.23880437	      8.97052395	     11.61868690	     10.24262520	    -20.45994863	     14.35182221	    -15.77400942	      0.00000000	     29.01799115	     -4.85081302	     -4.03081581	    -65.02841498	     11.86230310	    -13.14774054	      0.00000000	    -11.41993766	      3.85392088	     -3.12001539
      3.83000000	     -0.76308004	     -4.31030050	     -6.02691261	     -1.11080572	      0.94445738	      0.23933670	      8.34468740	     11.41037212	     10.62241970	    -20.13428609	     14.48915603	    -15.96366932	      0.00000000	     29.37742447	     -4.65609027	     -4.15276139	    -63.61387105	     12.12013612	    -12.93238463	      0.00000000	    -11.44471046	      3.52718245	     -2.93760554
      3.83500000	     -0.76358860	     -4.12025230	     -6.21533767	     -1.10430230	      0.94487767	      0.23983907	      7.74154143	     11.21336221	     10.98412526	    -19.83111732	     14.65054184	    -16.14418533	      0.00000000	     29.71153875	     -4.47797197	     -4.27492700	    -62.12539990	     12.34075183	    -12.79050332	      0.00000000	    -11.46359379	      3.22990201	     -2.76166284
      3.84000000	     -0.77145972	     -3.94693294	     -6.40148344	     -1.09776764	      0.94517400	      0.24035399	      7.15978535	     11.03278345	     11.32453831	    -19.55527361	     14.83395373	    -16.31827313	      0.00000000	     30.01654920	     -4.32092245	     -4.39492788	    -60.56254679	     12.52869631	    -12.70806792	      0.00000000	    -11.46691732	      2.94958517	     -2.60335092
      3.84500000	     -0.76075848	     -3.79511015	     -6.59161654	     -1.09125111	      0.94539568	      0.24084601	      6.57154197	     10.87255723	     11.70255058	    -19.31040832	     15.01685085	    -16.49864899	      0.00000000	     30.26200482	     -4.17324851	     -4.48557339	    -58.92070762	     12.67972169	    -12.68111247	      0.00000000	    -11.49827357	      2.68861452	     -2.39321692
      3.85000000	     -0.77599237	     -3.65528605	     -6.76884386	     -1.08468575	      0.94545742	      0.24135826	      6.02742916	     10.72622288	     12.02561842	    -19.09559018	     15.23282613	    -16.67117685	      0.00000000	     30.50270610	     -4.04979783	     -4.58450289	    -57.21353293	     12.81547369	    -12.67500628	      0.00000000	    -11.48716464	      2.44446490	     -2.25272895
      3.85500000	     -0.75787466	     -3.53586899	     -6.96477598	     -1.07816363	      0.94547531	      0.24180827	      5.45782204	     10.59508349	     12.41833489	    -18.90677351	     15.44437155	    -16.85197197	      0.00000000	     30.66665206	     -3.93111615	     -4.64955288	    -55.43088643	     12.91048872	    -12.69924310	      0.00000000	    -11.53599965	      2.23094706	     -2.02148574
      3.86000000	     -0.75709589	     -3.42859391	     -7.14416187	     -1.07160882	      0.94535203	      0.24225737	      4.92312726	     10.47849213	     12.77863648	    -18.74980198	     15.67988144	    -17.03711252	      0.00000000	     30.81525910	     -3.82721973	     -4.70143556	    -53.58351478	     12.99992481	    -12.70924617	      0.00000000	    -11.55621326	      2.03239599	     -1.83941935
      3.86500000	     -0.75818769	     -3.33518488	     -7.31950277	     -1.06505264	      0.94512104	      0.24267467	      4.40712052	     10.37539821	     13.13944306	    -18.62799968	     15.93298658	    -17.21878461	      0.00000000	     30.93051228	     -3.73600608	     -4.73801412	    -51.67079323	     13.07557290	    -12.70355978	      0.00000000	    -11.57674159	      1.85666672	     -1.65645815
      3.87000000	     -0.75760290	     -3.25439811	     -7.49793691	     -1.05848796	      0.94479116	      0.24310579	      3.90235207	     10.28797214	     13.50611277	    -18.53566339	     16.20360296	    -17.40498099	      0.00000000	     31.00423362	     -3.65614391	     -4.74419401	    -49.69364055	     13.14246641	    -12.66593818	      0.00000000	    -11.60204409	      1.68939648	     -1.47015899
      3.87500000	     -0.78214973	     -3.17594614	     -7.65787206	     -1.05188342	      0.94432889	      0.24349604	      3.43848003	     10.20289091	     13.84253960	    -18.47136680	     16.49740082	    -17.57989084	      0.00000000	     31.07061789	     -3.58237969	     -4.74653290	    -47.65455502	     13.20498539	    -12.57731701	      0.00000000	    -11.58843558	      1.54031940	     -1.32875686
      3.88000000	     -0.80018994	     -3.10876429	     -7.82274707	     -1.04530414	      0.94378079	      0.24388342	      2.98558533	     10.13144661	     14.19223386	    -18.44358160	     16.80870828	    -17.75223969	      0.00000000	     31.09091333	     -3.51524195	     -4.70271565	    -45.55447747	     13.26160526	    -12.43669593	      0.00000000	    -11.59025166	      1.39847394	     -1.16655251
      3.88500000	     -0.77058736	     -3.06468205	     -7.99602897	     -1.03876858	      0.94321565	      0.24422905	      2.49466650	     10.07873197	     14.58960665	    -18.45006567	     17.11647036	    -17.93776844	      0.00000000	     31.02044488	     -3.46406323	     -4.62880101	    -43.39316503	     13.30560311	    -12.26784777	      0.00000000	    -11.66888488	      1.28056054	     -0.93689620
      3.89000000	     -0.79938384	     -3.00974491	     -8.13500261	     -1.03214642	      0.94248443	      0.24455090	      2.07422840	     10.01962976	     14.92332070	    -18.47013638	     17.45013522	    -18.10493834	      0.00000000	     30.97839672	     -3.40831117	     -4.54343442	    -41.17830613	     13.35506672	    -12.01489956	      0.00000000	    -11.65763862	      1.16784066	     -0.80448038
      3.89500000	     -0.79115103	     -2.96882424	     -8.29503668	     -1.02558289	      0.94172281	      0.24485750	      1.63232472	      9.97143636	     15.28706618	    -18.52916803	     17.79787791	    -18.27144553	      0.00000000	     30.85555089	     -3.36272101	     -4.40608166	    -38.90931383	     13.39389304	    -11.73061743	      0.00000000	    -11.70801113	      1.06308932	     -0.61202545
      3.90000000	     -0.82474725	     -2.92361119	     -8.43589333	     -1.01894661	      0.94083344	      0.24517538	      1.23568116	      9.92311687	     15.60626359	    -18.59040691	     18.16383223	    -18.42297349	      0.00000000	     30.74314413	     -3.32330995	     -4.25226188	    -36.59732559	     13.42360051	    -11.38772027	      0.00000000	    -11.69022085	      0.95711804	     -0.49161376
      3.90500000	     -0.86387222	     -2.88338629	     -8.57072110	     -1.01237962	      0.93984090	      0.24546235	      0.87551880	      9.88646141	     15.92780422	    -18.71073478	     18.55077498	    -18.56636845	      0.00000000	     30.61120926	     -3.28527284	     -4.02709362	    -34.25672115	     13.44721667	    -11.00590542	      0.00000000	    -11.69032578	      0.85950589	     -0.36463512
      3.91000000	     -0.84293015	     -2.86167549	     -8.72839395	     -1.00572382	      0.93890670	      0.24575504	      0.42223972	      9.84809954	     16.26214163	    -18.78950726	     18.92665420	    -18.69315181	      0.00000000	     30.36523639	     -3.27576650	     -3.82183363	    -31.86563351	     13.44587998	    -10.67609794	      0.00000000	    -11.74592831	      0.77716026	     -0.16763054
